<?xml version="1.0" encoding="UTF-8"?>
<svg width="46px" height="46px" viewBox="0 0 46 46" version="1.1" xmlns="http://www.w3.org/2000/svg">
  <!-- Generator: Sketch 53.2 (72643) - https://sketchapp.com -->
  <title>Group 7</title>
  <desc>Created with Sketch.</desc>
  <g id="Page-1" stroke="none" stroke-width="1" fill="none" fill-rule="evenodd">
    <g id="DASHBOARD" transform="translate(-431.000000, -111.000000)" fill="#1F93FB">
      <g id="Group-7" transform="translate(431.000000, 111.000000)">
        <circle id="Oval" opacity="0.200000003" cx="23" cy="23" r="23"></circle>
        <g id="network-(1)" transform="translate(11.000000, 12.000000)" fill-rule="nonzero">
          <path
            d="M22.7220025,6.06811968 C22.4273488,5.48880185 21.9360228,5.06508503 21.338508,4.87482306 C20.7409933,4.68445444 20.1088253,4.75057687 19.558528,5.06071242 C19.0082308,5.37095461 18.6055644,5.88809602 18.4248003,6.51700568 C18.3043246,6.93592329 18.294496,7.37062496 18.386702,7.78559656 L15.8631976,9.20786876 C15.0956591,8.07365574 13.899211,7.28349266 12.5245319,7.10144267 L12.5245319,4.83482965 C13.5193428,4.55242287 14.2536466,3.59492738 14.2536466,2.45986116 C14.2536466,1.10349809 13.2052346,0 11.9165806,0 C10.6279265,0 9.57941325,1.10349809 9.57941325,2.45996781 C9.57941325,3.59503403 10.3138184,4.55252952 11.308528,4.8349363 L11.308528,7.10133602 C9.55276472,7.33393768 8.08689288,8.55858913 7.43557442,10.2244478 L4.67375312,9.44121696 C4.67436107,9.01494057 4.57121201,8.59388998 4.36369798,8.21453918 C4.0523256,7.64503306 3.54884062,7.23720696 2.94615826,7.06624847 C1.70147936,6.71324 0.416777004,7.49188497 0.0814918785,8.80153575 C-0.0809324359,9.43599116 0.00114098559,10.0990285 0.312513361,10.668428 C0.623885737,11.2378275 1.12737071,11.6457602 1.73005307,11.8167187 C1.93239952,11.8740959 2.1376844,11.9024646 2.3418547,11.9024646 C2.74563567,11.9024646 3.14435038,11.7912296 3.50385223,11.5735588 C3.86426601,11.3552481 4.15446141,11.0458591 4.35741581,10.6769599 L7.11933843,11.4602975 C7.08954882,11.6886331 7.07283016,11.9212348 7.07283016,12.1581024 C7.07283016,13.333482 7.45371163,14.4163968 8.09104721,15.2797212 L6.06606286,17.4111031 C5.17298244,16.8710322 4.01179552,16.9995443 3.24942462,17.8017587 C2.33820699,18.760854 2.33820699,20.32145 3.24942462,21.2806519 C3.7050841,21.7602529 4.3035108,22 4.90203883,22 C5.50046553,22 6.09899355,21.7602529 6.55465303,21.2806519 C7.3169226,20.4782242 7.43901948,19.2560257 6.92580728,18.3161273 L8.95079163,16.1847453 C9.77101922,16.8555681 10.7997741,17.256462 11.9165806,17.256462 C13.0333871,17.256462 14.0621419,16.8555681 14.8823695,16.1847453 L16.9073539,18.3161273 C16.394243,19.2561323 16.5162386,20.4783308 17.2785081,21.2806519 C17.7341676,21.7602529 18.3325943,22 18.9311223,22 C19.5296504,22 20.1280771,21.7601462 20.5837365,21.2806519 C21.4949542,20.3215567 21.4949542,18.7609606 20.5837365,17.8017587 C19.821467,16.9994377 18.6601787,16.8710322 17.7671996,17.4111031 L15.7422153,15.2797212 C16.3795509,14.4163968 16.7604323,13.3335886 16.7604323,12.1581024 C16.7604323,11.5159683 16.6459348,10.9016695 16.4391301,10.3351496 L18.9608106,8.91394388 C19.2378338,9.22482597 19.5870004,9.45710768 19.9851072,9.58391344 C20.2088333,9.65515503 20.4375243,9.69045588 20.664898,9.69045588 C21.0446649,9.69045588 21.4208854,9.59191212 21.7650872,9.39791743 C22.3154857,9.08778189 22.7180508,8.57064048 22.898815,7.94173082 C23.0795792,7.31282116 23.0166562,6.64733086 22.7220025,6.06811968 L22.7220025,6.06811968 Z M21.1908772,8.26957011 C20.926925,8.41845223 20.6236587,8.45012701 20.3370096,8.35872874 C20.0503606,8.26754377 19.8146782,8.06416397 19.6733295,7.78623645 C19.5318795,7.50841558 19.5018873,7.18910822 19.5886216,6.88739796 C19.6752547,6.58568769 19.8684819,6.33762192 20.1325354,6.18884644 C20.2976955,6.09574179 20.4781557,6.04849625 20.6603384,6.04849625 C20.7693643,6.04849625 20.8790995,6.06545345 20.9864029,6.09958116 C21.273052,6.19076613 21.5087344,6.39414593 21.6500831,6.67207345 C21.7915331,6.94989432 21.8215253,7.26909503 21.7347909,7.5708053 C21.6481579,7.87272886 21.4549307,8.12079463 21.1908772,8.26957011 L21.1908772,8.26957011 Z M15.5443271,12.1579958 C15.5443271,14.263462 13.9168416,15.9764596 11.9164793,15.9764596 C9.91611693,15.9764596 8.28863138,14.263462 8.28863138,12.1579958 C8.28863138,10.0525295 9.91611693,8.33953191 11.9164793,8.33953191 C13.9168416,8.33953191 15.5443271,10.0525295 15.5443271,12.1579958 Z M10.7953158,2.45996781 C10.7953158,1.80919509 11.2982941,1.27989568 11.9164793,1.27989568 C12.5346644,1.27989568 13.0376427,1.80930174 13.0376427,2.45996781 C13.0376427,3.11063388 12.5346644,3.64003994 11.9164793,3.64003994 C11.2982941,3.64003994 10.7953158,3.11063388 10.7953158,2.45996781 Z M2.04639038,10.5809757 C1.75720823,10.4989626 1.51575025,10.3032615 1.36639689,10.0301332 C1.2169422,9.75689826 1.17762802,9.43887068 1.25554711,9.13449419 C1.41635022,8.50611778 2.03291413,8.13273933 2.62982095,8.30199143 C2.91900311,8.38400458 3.16046109,8.579599 3.30991577,8.85283396 C3.45926914,9.12606891 3.49858332,9.44409649 3.42066423,9.74847298 C3.25986112,10.3768494 2.64349986,10.7502278 2.04639038,10.5809757 Z M5.69480728,20.3755211 C5.25779164,20.8356053 4.54638733,20.8356053 4.10916904,20.3755211 C3.67205208,19.915437 3.67205208,19.1667604 4.10916904,18.7065696 C4.32772753,18.4765275 4.61488318,18.3615598 4.90203883,18.3615598 C5.18909315,18.3615598 5.4762488,18.4766342 5.69480728,18.7065696 C6.13192425,19.1667604 6.13192425,19.915437 5.69480728,20.3755211 Z M19.7237895,18.7065696 C20.1609064,19.1666537 20.1609064,19.9153303 19.7237895,20.3755211 C19.2867738,20.8356053 18.5753695,20.8356053 18.1381512,20.3755211 C17.7010343,19.915437 17.7010343,19.1667604 18.1381512,18.7065696 C18.3567097,18.4765275 18.6438654,18.3615598 18.931021,18.3615598 C19.2180753,18.3615598 19.505231,18.4765275 19.7237895,18.7065696 Z"
            id="Shape"></path>
        </g>
      </g>
    </g>
  </g>
</svg>
