<?xml version="1.0" encoding="UTF-8"?>
<svg width="36px" height="35px" viewBox="0 0 36 35" version="1.1" xmlns="http://www.w3.org/2000/svg">
  <!-- Generator: Sketch 53.2 (72643) - https://sketchapp.com -->
  <title>Group 5</title>
  <desc>Created with Sketch.</desc>
  <g id="Page-1" stroke="none" stroke-width="1" fill="none" fill-rule="evenodd">
    <g id="DASHBOARD" transform="translate(-30.000000, -135.000000)">
      <g id="Group-5" transform="translate(30.000000, 136.000000)">
        <circle id="Oval" fill="#485568" cx="17" cy="17" r="17"></circle>
        <g id="baseline-computer-24px" transform="translate(8.000000, 8.000000)">
          <polygon id="Path" points="0 0 18 0 18 18 0 18"></polygon>
          <path
            d="M15,13.5 C15.825,13.5 16.4925,12.825 16.4925,12 L16.5,4.5 C16.5,3.675 15.825,3 15,3 L3,3 C2.175,3 1.5,3.675 1.5,4.5 L1.5,12 C1.5,12.825 2.175,13.5 3,13.5 L0,13.5 L0,15 L18,15 L18,13.5 L15,13.5 Z M3,4.5 L15,4.5 L15,12 L3,12 L3,4.5 Z"
            id="Shape" fill="#DCE1E7" fill-rule="nonzero"></path>
        </g>
        <circle id="Oval-Copy-4" stroke="#263446" stroke-width="2" fill="#F04D5D" cx="30.5" cy="4.5" r="4.5"></circle>
      </g>
    </g>
  </g>
</svg>
