<?xml version="1.0" encoding="UTF-8"?>
<svg width="134px" height="30px" viewBox="0 0 134 30" version="1.1" xmlns="http://www.w3.org/2000/svg">
  <!-- Generator: Sketch 53.2 (72643) - https://sketchapp.com -->
  <title>Group</title>
  <desc>Created with Sketch.</desc>
  <g id="Page-1" stroke="none" stroke-width="1" fill="none" fill-rule="evenodd">
    <g id="HOME" transform="translate(-575.000000, -235.000000)" fill="#1F93FB" fill-rule="nonzero">
      <g id="Group" transform="translate(568.000000, 227.000000)">
        <g id="wifi-signal"
           transform="translate(25.328947, 25.000000) rotate(-45.000000) translate(-25.328947, -25.000000) translate(6.578947, 9.210526)">
          <path
            d="M36.1460526,12.4697368 C36.1460526,10.9203947 35.6151316,9.58026316 34.7526316,8.42763158 C34.6638158,8.24210526 34.4940789,8.13355263 34.3381579,7.98157895 C34.0164474,7.62631579 33.6651316,7.31447368 33.2802632,7.03421053 C24.4973684,-0.345394737 11.6388158,-0.3375 2.85789474,7.04407895 C2.47697368,7.32631579 1.39342105,8.50065789 1.39342105,8.50065789 C0.530921053,9.65328947 0,11.0782895 0,12.6276316 C0,14.2381579 0.714473684,16.0973684 1.49802632,16.8809211 C2.28157895,17.6644737 12.8960526,28.3203947 12.8960526,28.3203947 C14.1631579,29.7651316 15.9986842,30.6967105 18.0710526,30.6967105 C20.0368421,30.6967105 21.4440789,30.3671053 23.0565789,28.7230263 C23.0644737,28.7230263 34.0401316,17.5796053 34.0401316,17.5796053 C35.4335526,16.1901316 36.1460526,14.2263158 36.1460526,12.4697368 Z M18.075,26.7453947 C16.4388158,26.7493421 15.1125,25.4269737 15.1125,23.7888158 C15.1085526,22.1546053 16.4348684,20.8243421 18.075,20.8243421 C19.7111842,20.8203947 21.0375,22.1467105 21.0335526,23.7888158 C21.0375,25.4230263 19.7111842,26.7513158 18.075,26.7453947 Z M25.7486842,20.2953947 C25.1703947,20.8736842 24.4125,21.1598684 23.6546053,21.1598684 C22.8947368,21.1598684 22.1388158,20.8717105 21.5605263,20.2953947 C19.6342105,18.3690789 16.5039474,18.3690789 14.5815789,20.2953947 C13.425,21.4519737 11.55,21.4480263 10.3934211,20.2953947 C9.23684211,19.1388158 9.23684211,17.2618421 10.3934211,16.1052632 C14.625,11.8736842 21.5092105,11.8736842 25.7467105,16.1052632 C26.9052632,17.2638158 26.9052632,19.1427632 25.7486842,20.2953947 Z M31.3322368,14.7157895 C30.7539474,15.2940789 29.9960526,15.5802632 29.2381579,15.5802632 C28.4802632,15.5802632 27.7203947,15.2921053 27.1421053,14.7157895 C22.1427632,9.71447368 14.0013158,9.71447368 9,14.7157895 C7.84342105,15.8684211 5.96842105,15.8684211 4.81184211,14.7157895 C3.65723684,13.5592105 3.65723684,11.6842105 4.81184211,10.5256579 C12.1223684,3.22105263 24.0138158,3.22105263 31.3282895,10.5256579 C32.4868421,11.6842105 32.4868421,13.5592105 31.3322368,14.7157895 Z"
            id="Shape"></path>
        </g>
        <path
          d="M47.9926316,22.9894737 L52.6726316,22.9894737 C53.2059676,22.9894737 53.7059626,23.0894727 54.1726316,23.2894737 C54.6393006,23.4894747 55.0459632,23.7428055 55.3926316,24.0494737 C55.7393,24.3561419 56.0126306,24.7394714 56.2126316,25.1994737 C56.4126326,25.659476 56.5126316,26.1561377 56.5126316,26.6894737 C56.5126316,27.1961429 56.4292991,27.6628049 56.2626316,28.0894737 C56.0959641,28.5161425 55.8659664,28.9028053 55.5726316,29.2494737 C55.8659664,29.5828087 56.0959641,29.9661382 56.2626316,30.3994737 C56.4292991,30.8328092 56.5126316,31.2894713 56.5126316,31.7694737 C56.5126316,32.3028097 56.4126326,32.8294711 56.2126316,33.3494737 C56.0126306,33.8694763 55.7393,34.3028053 55.3926316,34.6494737 C55.0459632,34.9961421 54.6393006,35.272806 54.1726316,35.4794737 C53.7059626,35.6861414 53.2059676,35.7894737 52.6726316,35.7894737 L48.1126316,35.7894737 C47.6992962,35.7628069 47.3726328,35.6361415 47.1326316,35.4094737 C46.879297,35.1428057 46.7526316,34.8228089 46.7526316,34.4494737 L46.7526316,24.3094737 C46.7526316,24.1094727 46.8059644,23.9228079 46.9126316,23.7494737 C46.9792986,23.6161397 47.0659644,23.4961409 47.1726316,23.3894737 C47.3992994,23.1494725 47.67263,23.0161405 47.9926316,22.9894737 Z M52.6726316,33.1294737 C53.0059666,33.1294737 53.2926304,33.0128082 53.5326316,32.7794737 C53.7726328,32.5461392 53.8926316,32.1894761 53.8926316,31.7094737 C53.8926316,31.2294713 53.7726328,30.8728082 53.5326316,30.6394737 C53.2926304,30.4061392 53.0059666,30.2894737 52.6726316,30.2894737 L49.3926316,30.2894737 L49.3926316,33.1294737 L52.6726316,33.1294737 Z M52.6726316,27.9894737 C53.0059666,27.9894737 53.2926304,27.8694749 53.5326316,27.6294737 C53.7726328,27.3894725 53.8926316,27.0961421 53.8926316,26.7494737 C53.8926316,26.4161387 53.7726328,26.1328082 53.5326316,25.8994737 C53.2926304,25.6661392 53.0059666,25.5494737 52.6726316,25.5494737 L49.3926316,25.5494737 L49.3926316,27.9894737 L52.6726316,27.9894737 Z M62.4126316,26.1094737 C63.0526348,26.1094737 63.665962,26.2428057 64.2526316,26.5094737 C64.8393012,26.7761417 65.3559627,27.1328048 65.8026316,27.5794737 C66.2493005,28.0261426 66.6059636,28.5394708 66.8726316,29.1194737 C67.1392996,29.6994766 67.2726316,30.3094705 67.2726316,30.9494737 C67.2726316,31.2961421 67.1426329,31.5694727 66.8826316,31.7694737 C66.6226303,31.9694747 66.2993002,32.0628071 65.9126316,32.0494737 L60.5926316,32.0494737 C61.0326338,32.8094775 61.6392944,33.1894737 62.4126316,33.1894737 C62.625966,33.1894737 62.8059642,33.1694739 62.9526316,33.1294737 C63.099299,33.0894735 63.2292977,33.0428073 63.3426316,32.9894737 C63.4559655,32.9361401 63.5692977,32.8894739 63.6826316,32.8494737 C63.7959655,32.8094735 63.9259642,32.7894737 64.0726316,32.7894737 C64.352633,32.8028071 64.5959639,32.8828063 64.8026316,33.0294737 C65.0092993,33.1761411 65.1626311,33.3594726 65.2626316,33.5794737 C65.3626321,33.7994748 65.3959651,34.0361391 65.3626316,34.2894737 C65.3292981,34.5428083 65.2126326,34.7761393 65.0126316,34.9894737 C64.6526298,35.2828085 64.2526338,35.4861398 63.8126316,35.5994737 C63.3726294,35.7128076 62.9059674,35.7761403 62.4126316,35.7894737 C61.7726284,35.8161405 61.1593012,35.699475 60.5726316,35.4394737 C59.985962,35.1794724 59.4693005,34.8261426 59.0226316,34.3794737 C58.5759627,33.9328048 58.2226329,33.4094767 57.9626316,32.8094737 C57.7026303,32.2094707 57.5726316,31.5894769 57.5726316,30.9494737 C57.5726316,30.3228039 57.7026303,29.7161433 57.9626316,29.1294737 C58.2226329,28.5428041 58.5726294,28.0261426 59.0126316,27.5794737 C59.4526338,27.1328048 59.965962,26.7761417 60.5526316,26.5094737 C61.1393012,26.2428057 61.759295,26.1094737 62.4126316,26.1094737 Z M64.2326316,29.8294737 C64.0059638,29.4161383 63.7392998,29.1261412 63.4326316,28.9594737 C63.1259634,28.7928062 62.7859668,28.7094737 62.4126316,28.7094737 C62.025963,28.7094737 61.6826331,28.7928062 61.3826316,28.9594737 C61.0826301,29.1261412 60.8192994,29.4161383 60.5926316,29.8294737 L64.2326316,29.8294737 Z M69.6126316,23.0094737 C69.9859668,23.0094737 70.299297,23.1394724 70.5526316,23.3994737 C70.8059662,23.659475 70.9459648,23.9828051 70.9726316,24.3694737 L70.9726316,25.9694737 L74.4126316,25.9694737 C74.7993002,25.9694737 75.1126304,26.1028057 75.3526316,26.3694737 C75.5926328,26.6361417 75.7126316,26.9494719 75.7126316,27.3094737 C75.7126316,27.6561421 75.5792996,27.966139 75.3126316,28.2394737 C75.0459636,28.5128084 74.7459666,28.6494737 74.4126316,28.6494737 L70.9726316,28.6494737 L70.9726316,30.8494737 C70.9726316,31.1561419 71.0292977,31.446139 71.1426316,31.7194737 C71.2559655,31.9928084 71.4126306,32.2361393 71.6126316,32.4494737 C71.8126326,32.6628081 72.0492969,32.8294731 72.3226316,32.9494737 C72.5959663,33.0694743 72.89263,33.1294737 73.2126316,33.1294737 C73.5593,33.1294737 73.8559637,33.0828075 74.1026316,32.9894737 C74.3492995,32.8961399 74.565964,32.7561413 74.7526316,32.5694737 C75.032633,32.3294725 75.3426299,32.2061404 75.6826316,32.1994737 C76.0226333,32.192807 76.3392968,32.3228057 76.6326316,32.5894737 C76.7659656,32.7094743 76.8659646,32.8461396 76.9326316,32.9994737 C76.9992986,33.1528078 77.0359649,33.3128062 77.0426316,33.4794737 C77.0492983,33.6461412 77.0259652,33.8094729 76.9726316,33.9694737 C76.919298,34.1294745 76.8326322,34.2694731 76.7126316,34.3894737 C76.2459626,34.8428093 75.7326344,35.1894725 75.1726316,35.4294737 C74.6126288,35.6694749 74.0126348,35.7894737 73.3726316,35.7894737 C72.6792948,35.7894737 72.025968,35.6728082 71.4126316,35.4394737 C70.7992952,35.2061392 70.2593006,34.8728092 69.7926316,34.4394737 C69.3259626,34.0061382 68.9559663,33.4861434 68.6826316,32.8794737 C68.4092969,32.272804 68.265965,31.5961441 68.2526316,30.8494737 L68.2526316,24.2694737 C68.2526316,23.9094719 68.3892969,23.6094749 68.6626316,23.3694737 C68.9359663,23.1294725 69.2526298,23.0094737 69.6126316,23.0094737 Z M79.1526316,23.0094737 C79.5259668,23.0094737 79.839297,23.1394724 80.0926316,23.3994737 C80.3459662,23.659475 80.4859648,23.9828051 80.5126316,24.3694737 L80.5126316,25.9694737 L83.9526316,25.9694737 C84.3393002,25.9694737 84.6526304,26.1028057 84.8926316,26.3694737 C85.1326328,26.6361417 85.2526316,26.9494719 85.2526316,27.3094737 C85.2526316,27.6561421 85.1192996,27.966139 84.8526316,28.2394737 C84.5859636,28.5128084 84.2859666,28.6494737 83.9526316,28.6494737 L80.5126316,28.6494737 L80.5126316,30.8494737 C80.5126316,31.1561419 80.5692977,31.446139 80.6826316,31.7194737 C80.7959655,31.9928084 80.9526306,32.2361393 81.1526316,32.4494737 C81.3526326,32.6628081 81.5892969,32.8294731 81.8626316,32.9494737 C82.1359663,33.0694743 82.43263,33.1294737 82.7526316,33.1294737 C83.0993,33.1294737 83.3959637,33.0828075 83.6426316,32.9894737 C83.8892995,32.8961399 84.105964,32.7561413 84.2926316,32.5694737 C84.572633,32.3294725 84.8826299,32.2061404 85.2226316,32.1994737 C85.5626333,32.192807 85.8792968,32.3228057 86.1726316,32.5894737 C86.3059656,32.7094743 86.4059646,32.8461396 86.4726316,32.9994737 C86.5392986,33.1528078 86.5759649,33.3128062 86.5826316,33.4794737 C86.5892983,33.6461412 86.5659652,33.8094729 86.5126316,33.9694737 C86.459298,34.1294745 86.3726322,34.2694731 86.2526316,34.3894737 C85.7859626,34.8428093 85.2726344,35.1894725 84.7126316,35.4294737 C84.1526288,35.6694749 83.5526348,35.7894737 82.9126316,35.7894737 C82.2192948,35.7894737 81.565968,35.6728082 80.9526316,35.4394737 C80.3392952,35.2061392 79.7993006,34.8728092 79.3326316,34.4394737 C78.8659626,34.0061382 78.4959663,33.4861434 78.2226316,32.8794737 C77.9492969,32.272804 77.805965,31.5961441 77.7926316,30.8494737 L77.7926316,24.2694737 C77.7926316,23.9094719 77.9292969,23.6094749 78.2026316,23.3694737 C78.4759663,23.1294725 78.7926298,23.0094737 79.1526316,23.0094737 Z M92.0526316,26.1094737 C92.6926348,26.1094737 93.305962,26.2428057 93.8926316,26.5094737 C94.4793012,26.7761417 94.9959627,27.1328048 95.4426316,27.5794737 C95.8893005,28.0261426 96.2459636,28.5394708 96.5126316,29.1194737 C96.7792996,29.6994766 96.9126316,30.3094705 96.9126316,30.9494737 C96.9126316,31.2961421 96.7826329,31.5694727 96.5226316,31.7694737 C96.2626303,31.9694747 95.9393002,32.0628071 95.5526316,32.0494737 L90.2326316,32.0494737 C90.6726338,32.8094775 91.2792944,33.1894737 92.0526316,33.1894737 C92.265966,33.1894737 92.4459642,33.1694739 92.5926316,33.1294737 C92.739299,33.0894735 92.8692977,33.0428073 92.9826316,32.9894737 C93.0959655,32.9361401 93.2092977,32.8894739 93.3226316,32.8494737 C93.4359655,32.8094735 93.5659642,32.7894737 93.7126316,32.7894737 C93.992633,32.8028071 94.2359639,32.8828063 94.4426316,33.0294737 C94.6492993,33.1761411 94.8026311,33.3594726 94.9026316,33.5794737 C95.0026321,33.7994748 95.0359651,34.0361391 95.0026316,34.2894737 C94.9692981,34.5428083 94.8526326,34.7761393 94.6526316,34.9894737 C94.2926298,35.2828085 93.8926338,35.4861398 93.4526316,35.5994737 C93.0126294,35.7128076 92.5459674,35.7761403 92.0526316,35.7894737 C91.4126284,35.8161405 90.7993012,35.699475 90.2126316,35.4394737 C89.625962,35.1794724 89.1093005,34.8261426 88.6626316,34.3794737 C88.2159627,33.9328048 87.8626329,33.4094767 87.6026316,32.8094737 C87.3426303,32.2094707 87.2126316,31.5894769 87.2126316,30.9494737 C87.2126316,30.3228039 87.3426303,29.7161433 87.6026316,29.1294737 C87.8626329,28.5428041 88.2126294,28.0261426 88.6526316,27.5794737 C89.0926338,27.1328048 89.605962,26.7761417 90.1926316,26.5094737 C90.7793012,26.2428057 91.399295,26.1094737 92.0526316,26.1094737 Z M93.8726316,29.8294737 C93.6459638,29.4161383 93.3792998,29.1261412 93.0726316,28.9594737 C92.7659634,28.7928062 92.4259668,28.7094737 92.0526316,28.7094737 C91.665963,28.7094737 91.3226331,28.7928062 91.0226316,28.9594737 C90.7226301,29.1261412 90.4592994,29.4161383 90.2326316,29.8294737 L93.8726316,29.8294737 Z M99.1126316,35.8094737 C98.7526298,35.8094737 98.4526328,35.6928082 98.2126316,35.4594737 C97.9726304,35.2261392 97.8392984,34.9161423 97.8126316,34.5294737 L97.8126316,30.8294737 C97.825965,30.1894705 97.9626303,29.5861432 98.2226316,29.0194737 C98.4826329,28.4528042 98.8292961,27.9594758 99.2626316,27.5394737 C99.6959671,27.1194716 100.202629,26.7861416 100.782632,26.5394737 C101.362634,26.2928058 101.979295,26.1561405 102.632632,26.1294737 C103.005967,26.1294737 103.315964,26.2561391 103.562632,26.5094737 C103.809299,26.7628083 103.945965,27.0694719 103.972632,27.4294737 C103.972632,27.7894755 103.845966,28.0928058 103.592632,28.3394737 C103.339297,28.5861416 103.025967,28.7161403 102.652632,28.7294737 C102.345963,28.7294737 102.0593,28.7861398 101.792632,28.8994737 C101.525964,29.0128076 101.292633,29.1694727 101.092632,29.3694737 C100.892631,29.5694747 100.732632,29.806139 100.612632,30.0794737 C100.492631,30.3528084 100.432632,30.6494721 100.432632,30.9694737 L100.432632,34.6094737 C100.405965,34.9561421 100.275966,35.2428059 100.042632,35.4694737 C99.8092971,35.6961415 99.4993002,35.8094737 99.1126316,35.8094737 Z M117.152632,31.4294737 C117.512633,31.4294737 117.825964,31.5594724 118.092632,31.8194737 C118.3593,32.079475 118.492632,32.4028051 118.492632,32.7894737 C118.492632,32.9228077 118.469298,33.0494731 118.422632,33.1694737 C118.375965,33.2894743 118.319299,33.4161397 118.252632,33.5494737 C117.865963,34.2294771 117.319302,34.772805 116.612632,35.1794737 C115.905961,35.5861424 115.105969,35.7894737 114.212632,35.7894737 L114.032632,35.7894737 C113.365962,35.7894737 112.739301,35.6728082 112.152632,35.4394737 C111.565962,35.2061392 111.052634,34.8794758 110.612632,34.4594737 C110.172629,34.0394716 109.8193,33.5428099 109.552632,32.9694737 C109.285964,32.3961375 109.152632,31.7761437 109.152632,31.1094737 L109.152632,27.8494737 C109.152632,27.1828037 109.275964,26.5561433 109.522632,25.9694737 C109.769299,25.3828041 110.109296,24.8694759 110.542632,24.4294737 C110.975967,23.9894715 111.485962,23.6428083 112.072632,23.3894737 C112.659301,23.1361391 113.312628,23.0094737 114.032632,23.0094737 C114.4193,23.0094737 114.765963,23.0428067 115.072632,23.1094737 C115.619301,23.2028075 116.125963,23.3828057 116.592632,23.6494737 C117.299302,24.0494757 117.859296,24.6094701 118.272632,25.3294737 C118.325965,25.4228075 118.375965,25.5361397 118.422632,25.6694737 C118.469298,25.8028077 118.492632,25.9294731 118.492632,26.0494737 C118.492632,26.4228089 118.3593,26.7428057 118.092632,27.0094737 C117.825964,27.2761417 117.505967,27.4094737 117.132632,27.4094737 C116.839297,27.4094737 116.599299,27.3328078 116.412632,27.1794737 C116.225964,27.0261396 116.059299,26.8361415 115.912632,26.6094737 C115.752631,26.3428057 115.532633,26.1294745 115.252632,25.9694737 C115.025964,25.8361397 114.732633,25.7228075 114.372632,25.6294737 C114.265964,25.6161403 114.145966,25.6094737 114.012632,25.6094737 C113.69263,25.6094737 113.3993,25.6661398 113.132632,25.7794737 C112.865964,25.8928076 112.632633,26.0428061 112.432632,26.2294737 C112.232631,26.4161413 112.072632,26.6428057 111.952632,26.9094737 C111.832631,27.1761417 111.772632,27.4561389 111.772632,27.7494737 L111.772632,30.9494737 C111.759298,31.2561419 111.809298,31.546139 111.922632,31.8194737 C112.035965,32.0928084 112.195964,32.3294727 112.402632,32.5294737 C112.609299,32.7294747 112.849297,32.8894731 113.122632,33.0094737 C113.395966,33.1294743 113.705963,33.1894737 114.052632,33.1894737 L114.292632,33.1894737 C114.692634,33.1094733 115.01263,32.9961411 115.252632,32.8494737 C115.5193,32.6894729 115.739297,32.4761417 115.912632,32.2094737 C116.059299,31.9828059 116.212631,31.7961411 116.372632,31.6494737 C116.532632,31.5028063 116.79263,31.4294737 117.152632,31.4294737 Z M124.872632,26.1294737 C125.472635,26.1961407 126.035962,26.3694723 126.562632,26.6494737 C127.089301,26.9294751 127.54263,27.2861382 127.922632,27.7194737 C128.302633,28.1528092 128.60263,28.6461376 128.822632,29.1994737 C129.042633,29.7528098 129.152632,30.3361373 129.152632,30.9494737 L129.152632,34.4894737 C129.152632,34.8494755 129.0193,35.1561391 128.752632,35.4094737 C128.485964,35.6628083 128.185967,35.7894737 127.852632,35.7894737 C127.385963,35.7894737 127.012633,35.5761425 126.732632,35.1494737 C126.665965,35.1761405 126.605965,35.2061402 126.552632,35.2394737 C126.499298,35.2728072 126.445965,35.3028069 126.392632,35.3294737 C126.07263,35.4761411 125.745967,35.5894733 125.412632,35.6694737 C125.065963,35.7494741 124.6993,35.7894737 124.312632,35.7894737 C123.312627,35.7894737 122.419302,35.5194764 121.632632,34.9794737 C120.845961,34.439471 120.2593,33.7428113 119.872632,32.8894737 C119.739298,32.5828055 119.635965,32.2694753 119.562632,31.9494737 C119.489298,31.6294721 119.452632,31.2961421 119.452632,30.9494737 C119.452632,30.6028053 119.489298,30.2694753 119.562632,29.9494737 C119.635965,29.6294721 119.739298,29.3161419 119.872632,29.0094737 C120.2593,28.1428027 120.845961,27.4428097 121.632632,26.9094737 C122.419302,26.3761377 123.312627,26.1094737 124.312632,26.1094737 L124.602632,26.1094737 C124.689299,26.1094737 124.779298,26.1161403 124.872632,26.1294737 Z M124.292632,33.1894737 C124.5993,33.1894737 124.889297,33.1328076 125.162632,33.0194737 C125.435966,32.9061398 125.672631,32.7494747 125.872632,32.5494737 C126.072633,32.3494727 126.232631,32.1128084 126.352632,31.8394737 C126.472632,31.566139 126.532632,31.2694753 126.532632,30.9494737 C126.532632,30.6561389 126.472632,30.3728084 126.352632,30.0994737 C126.232631,29.826139 126.069299,29.5861414 125.862632,29.3794737 C125.655964,29.172806 125.415966,29.0094743 125.142632,28.8894737 C124.869297,28.7694731 124.585966,28.7094737 124.292632,28.7094737 C123.999297,28.7094737 123.7193,28.7694731 123.452632,28.8894737 C123.185964,29.0094743 122.949299,29.172806 122.742632,29.3794737 C122.535964,29.5861414 122.372632,29.826139 122.252632,30.0994737 C122.132631,30.3728084 122.072632,30.6561389 122.072632,30.9494737 C122.072632,31.2561419 122.135964,31.546139 122.262632,31.8194737 C122.389299,32.0928084 122.555964,32.3294727 122.762632,32.5294737 C122.969299,32.7294747 123.205964,32.8894731 123.472632,33.0094737 C123.7393,33.1294743 124.01263,33.1894737 124.292632,33.1894737 Z M131.672632,23.0694737 C132.032633,23.0694737 132.335964,23.1961391 132.582632,23.4494737 C132.829299,23.7028083 132.965965,24.0161385 132.992632,24.3894737 L132.992632,32.2894737 C132.992632,32.5561417 133.079297,32.7828061 133.252632,32.9694737 C133.425966,33.1561413 133.645964,33.2494737 133.912632,33.2494737 C134.2593,33.2494737 134.56263,33.3694725 134.822632,33.6094737 C135.082633,33.8494749 135.219298,34.1494719 135.232632,34.5094737 C135.232632,34.8294753 135.122633,35.1128058 134.902632,35.3594737 C134.68263,35.6061416 134.3993,35.7561401 134.052632,35.8094737 L133.772632,35.8094737 C133.305963,35.8094737 132.865967,35.712808 132.452632,35.5194737 C132.039296,35.3261394 131.675966,35.0694753 131.362632,34.7494737 C131.049297,34.4294721 130.802632,34.0561425 130.622632,33.6294737 C130.442631,33.2028049 130.352632,32.7561427 130.352632,32.2894737 L130.352632,24.3094737 C130.392632,23.9761387 130.53263,23.6894749 130.772632,23.4494737 C131.012633,23.2094725 131.31263,23.0828071 131.672632,23.0694737 Z M137.372632,23.0694737 C137.732633,23.0694737 138.035964,23.1961391 138.282632,23.4494737 C138.529299,23.7028083 138.665965,24.0161385 138.692632,24.3894737 L138.692632,32.2894737 C138.692632,32.5561417 138.779297,32.7828061 138.952632,32.9694737 C139.125966,33.1561413 139.345964,33.2494737 139.612632,33.2494737 C139.9593,33.2494737 140.26263,33.3694725 140.522632,33.6094737 C140.782633,33.8494749 140.919298,34.1494719 140.932632,34.5094737 C140.932632,34.8294753 140.822633,35.1128058 140.602632,35.3594737 C140.38263,35.6061416 140.0993,35.7561401 139.752632,35.8094737 L139.472632,35.8094737 C139.005963,35.8094737 138.565967,35.712808 138.152632,35.5194737 C137.739296,35.3261394 137.375966,35.0694753 137.062632,34.7494737 C136.749297,34.4294721 136.502632,34.0561425 136.322632,33.6294737 C136.142631,33.2028049 136.052632,32.7561427 136.052632,32.2894737 L136.052632,24.3094737 C136.092632,23.9761387 136.23263,23.6894749 136.472632,23.4494737 C136.712633,23.2094725 137.01263,23.0828071 137.372632,23.0694737 Z"
          id="BetterCall"></path>
      </g>
    </g>
  </g>
</svg>
