<?xml version="1.0" encoding="UTF-8"?>
<svg width="125px" height="23px" viewBox="0 0 125 23" version="1.1" xmlns="http://www.w3.org/2000/svg">
  <!-- Generator: Sketch 53.2 (72643) - https://sketchapp.com -->
  <title>Group</title>
  <desc>Created with Sketch.</desc>
  <g id="Page-1" stroke="none" stroke-width="1" fill="none" fill-rule="evenodd">
    <g id="DETAILS" transform="translate(-29.000000, -18.000000)" fill="#1F93FB" fill-rule="nonzero">
      <g id="Group" transform="translate(24.000000, 12.000000)">
        <g id="wifi-signal"
           transform="translate(19.250000, 19.000000) rotate(-45.000000) translate(-19.250000, -19.000000) translate(5.000000, 7.000000)">
          <path
            d="M27.471,9.477 C27.471,8.2995 27.0675,7.281 26.412,6.405 C26.3445,6.264 26.2155,6.1815 26.097,6.066 C25.8525,5.796 25.5855,5.559 25.293,5.346 C18.618,-0.2625 8.8455,-0.2565 2.172,5.3535 C1.8825,5.568 1.059,6.4605 1.059,6.4605 C0.4035,7.3365 0,8.4195 0,9.597 C0,10.821 0.543,12.234 1.1385,12.8295 C1.734,13.425 9.801,21.5235 9.801,21.5235 C10.764,22.6215 12.159,23.3295 13.734,23.3295 C15.228,23.3295 16.2975,23.079 17.523,21.8295 C17.529,21.8295 25.8705,13.3605 25.8705,13.3605 C26.9295,12.3045 27.471,10.812 27.471,9.477 Z M13.737,20.3265 C12.4935,20.3295 11.4855,19.3245 11.4855,18.0795 C11.4825,16.8375 12.4905,15.8265 13.737,15.8265 C14.9805,15.8235 15.9885,16.8315 15.9855,18.0795 C15.9885,19.3215 14.9805,20.331 13.737,20.3265 Z M19.569,15.4245 C19.1295,15.864 18.5535,16.0815 17.9775,16.0815 C17.4,16.0815 16.8255,15.8625 16.386,15.4245 C14.922,13.9605 12.543,13.9605 11.082,15.4245 C10.203,16.3035 8.778,16.3005 7.899,15.4245 C7.02,14.5455 7.02,13.119 7.899,12.24 C11.115,9.024 16.347,9.024 19.5675,12.24 C20.448,13.1205 20.448,14.5485 19.569,15.4245 Z M23.8125,11.184 C23.373,11.6235 22.797,11.841 22.221,11.841 C21.645,11.841 21.0675,11.622 20.628,11.184 C16.8285,7.383 10.641,7.383 6.84,11.184 C5.961,12.06 4.536,12.06 3.657,11.184 C2.7795,10.305 2.7795,8.88 3.657,7.9995 C9.213,2.448 18.2505,2.448 23.8095,7.9995 C24.69,8.88 24.69,10.305 23.8125,11.184 Z"
            id="Shape"></path>
        </g>
        <path
          d="M36.94,14.2 L41.62,14.2 C42.153336,14.2 42.653331,14.299999 43.12,14.5 C43.586669,14.700001 43.9933316,14.9533318 44.34,15.26 C44.6866684,15.5666682 44.959999,15.9499977 45.16,16.41 C45.360001,16.8700023 45.46,17.366664 45.46,17.9 C45.46,18.4066692 45.3766675,18.8733312 45.21,19.3 C45.0433325,19.7266688 44.8133348,20.1133316 44.52,20.46 C44.8133348,20.793335 45.0433325,21.1766645 45.21,21.61 C45.3766675,22.0433355 45.46,22.4999976 45.46,22.98 C45.46,23.513336 45.360001,24.0399974 45.16,24.56 C44.959999,25.0800026 44.6866684,25.5133316 44.34,25.86 C43.9933316,26.2066684 43.586669,26.4833323 43.12,26.69 C42.653331,26.8966677 42.153336,27 41.62,27 L37.06,27 C36.6466646,26.9733332 36.3200012,26.8466678 36.08,26.62 C35.8266654,26.353332 35.7,26.0333352 35.7,25.66 L35.7,15.52 C35.7,15.319999 35.7533328,15.1333342 35.86,14.96 C35.926667,14.826666 36.0133328,14.7066672 36.12,14.6 C36.3466678,14.3599988 36.6199984,14.2266668 36.94,14.2 Z M41.62,24.34 C41.953335,24.34 42.2399988,24.2233345 42.48,23.99 C42.7200012,23.7566655 42.84,23.4000024 42.84,22.92 C42.84,22.4399976 42.7200012,22.0833345 42.48,21.85 C42.2399988,21.6166655 41.953335,21.5 41.62,21.5 L38.34,21.5 L38.34,24.34 L41.62,24.34 Z M41.62,19.2 C41.953335,19.2 42.2399988,19.0800012 42.48,18.84 C42.7200012,18.5999988 42.84,18.3066684 42.84,17.96 C42.84,17.626665 42.7200012,17.3433345 42.48,17.11 C42.2399988,16.8766655 41.953335,16.76 41.62,16.76 L38.34,16.76 L38.34,19.2 L41.62,19.2 Z M51.36,17.32 C52.0000032,17.32 52.6133304,17.453332 53.2,17.72 C53.7866696,17.986668 54.3033311,18.3433311 54.75,18.79 C55.1966689,19.2366689 55.553332,19.7499971 55.82,20.33 C56.086668,20.9100029 56.22,21.5199968 56.22,22.16 C56.22,22.5066684 56.0900013,22.779999 55.83,22.98 C55.5699987,23.180001 55.2466686,23.2733334 54.86,23.26 L49.54,23.26 C49.9800022,24.0200038 50.5866628,24.4 51.36,24.4 C51.5733344,24.4 51.7533326,24.3800002 51.9,24.34 C52.0466674,24.2999998 52.1766661,24.2533336 52.29,24.2 C52.4033339,24.1466664 52.5166661,24.1000002 52.63,24.06 C52.7433339,24.0199998 52.8733326,24 53.02,24 C53.3000014,24.0133334 53.5433323,24.0933326 53.75,24.24 C53.9566677,24.3866674 54.1099995,24.5699989 54.21,24.79 C54.3100005,25.0100011 54.3433335,25.2466654 54.31,25.5 C54.2766665,25.7533346 54.160001,25.9866656 53.96,26.2 C53.5999982,26.4933348 53.2000022,26.6966661 52.76,26.81 C52.3199978,26.9233339 51.8533358,26.9866666 51.36,27 C50.7199968,27.0266668 50.1066696,26.9100013 49.52,26.65 C48.9333304,26.3899987 48.4166689,26.0366689 47.97,25.59 C47.5233311,25.1433311 47.1700013,24.620003 46.91,24.02 C46.6499987,23.419997 46.52,22.8000032 46.52,22.16 C46.52,21.5333302 46.6499987,20.9266696 46.91,20.34 C47.1700013,19.7533304 47.5199978,19.2366689 47.96,18.79 C48.4000022,18.3433311 48.9133304,17.986668 49.5,17.72 C50.0866696,17.453332 50.7066634,17.32 51.36,17.32 Z M53.18,21.04 C52.9533322,20.6266646 52.6866682,20.3366675 52.38,20.17 C52.0733318,20.0033325 51.7333352,19.92 51.36,19.92 C50.9733314,19.92 50.6300015,20.0033325 50.33,20.17 C50.0299985,20.3366675 49.7666678,20.6266646 49.54,21.04 L53.18,21.04 Z M58.56,14.22 C58.9333352,14.22 59.2466654,14.3499987 59.5,14.61 C59.7533346,14.8700013 59.8933332,15.1933314 59.92,15.58 L59.92,17.18 L63.36,17.18 C63.7466686,17.18 64.0599988,17.313332 64.3,17.58 C64.5400012,17.846668 64.66,18.1599982 64.66,18.52 C64.66,18.8666684 64.526668,19.1766653 64.26,19.45 C63.993332,19.7233347 63.693335,19.86 63.36,19.86 L59.92,19.86 L59.92,22.06 C59.92,22.3666682 59.9766661,22.6566653 60.09,22.93 C60.2033339,23.2033347 60.359999,23.4466656 60.56,23.66 C60.760001,23.8733344 60.9966653,24.0399994 61.27,24.16 C61.5433347,24.2800006 61.8399984,24.34 62.16,24.34 C62.5066684,24.34 62.8033321,24.2933338 63.05,24.2 C63.2966679,24.1066662 63.5133324,23.9666676 63.7,23.78 C63.9800014,23.5399988 64.2899983,23.4166667 64.63,23.41 C64.9700017,23.4033333 65.2866652,23.533332 65.58,23.8 C65.713334,23.9200006 65.813333,24.0566659 65.88,24.21 C65.946667,24.3633341 65.9833333,24.5233325 65.99,24.69 C65.9966667,24.8566675 65.9733336,25.0199992 65.92,25.18 C65.8666664,25.3400008 65.7800006,25.4799994 65.66,25.6 C65.193331,26.0533356 64.6800028,26.3999988 64.12,26.64 C63.5599972,26.8800012 62.9600032,27 62.32,27 C61.6266632,27 60.9733364,26.8833345 60.36,26.65 C59.7466636,26.4166655 59.206669,26.0833355 58.74,25.65 C58.273331,25.2166645 57.9033347,24.6966697 57.63,24.09 C57.3566653,23.4833303 57.2133334,22.8066704 57.2,22.06 L57.2,15.48 C57.2,15.1199982 57.3366653,14.8200012 57.61,14.58 C57.8833347,14.3399988 58.1999982,14.22 58.56,14.22 Z M68.1,14.22 C68.4733352,14.22 68.7866654,14.3499987 69.04,14.61 C69.2933346,14.8700013 69.4333332,15.1933314 69.46,15.58 L69.46,17.18 L72.9,17.18 C73.2866686,17.18 73.5999988,17.313332 73.84,17.58 C74.0800012,17.846668 74.2,18.1599982 74.2,18.52 C74.2,18.8666684 74.066668,19.1766653 73.8,19.45 C73.533332,19.7233347 73.233335,19.86 72.9,19.86 L69.46,19.86 L69.46,22.06 C69.46,22.3666682 69.5166661,22.6566653 69.63,22.93 C69.7433339,23.2033347 69.899999,23.4466656 70.1,23.66 C70.300001,23.8733344 70.5366653,24.0399994 70.81,24.16 C71.0833347,24.2800006 71.3799984,24.34 71.7,24.34 C72.0466684,24.34 72.3433321,24.2933338 72.59,24.2 C72.8366679,24.1066662 73.0533324,23.9666676 73.24,23.78 C73.5200014,23.5399988 73.8299983,23.4166667 74.17,23.41 C74.5100017,23.4033333 74.8266652,23.533332 75.12,23.8 C75.253334,23.9200006 75.353333,24.0566659 75.42,24.21 C75.486667,24.3633341 75.5233333,24.5233325 75.53,24.69 C75.5366667,24.8566675 75.5133336,25.0199992 75.46,25.18 C75.4066664,25.3400008 75.3200006,25.4799994 75.2,25.6 C74.733331,26.0533356 74.2200028,26.3999988 73.66,26.64 C73.0999972,26.8800012 72.5000032,27 71.86,27 C71.1666632,27 70.5133364,26.8833345 69.9,26.65 C69.2866636,26.4166655 68.746669,26.0833355 68.28,25.65 C67.813331,25.2166645 67.4433347,24.6966697 67.17,24.09 C66.8966653,23.4833303 66.7533334,22.8066704 66.74,22.06 L66.74,15.48 C66.74,15.1199982 66.8766653,14.8200012 67.15,14.58 C67.4233347,14.3399988 67.7399982,14.22 68.1,14.22 Z M81,17.32 C81.6400032,17.32 82.2533304,17.453332 82.84,17.72 C83.4266696,17.986668 83.9433311,18.3433311 84.39,18.79 C84.8366689,19.2366689 85.193332,19.7499971 85.46,20.33 C85.726668,20.9100029 85.86,21.5199968 85.86,22.16 C85.86,22.5066684 85.7300013,22.779999 85.47,22.98 C85.2099987,23.180001 84.8866686,23.2733334 84.5,23.26 L79.18,23.26 C79.6200022,24.0200038 80.2266628,24.4 81,24.4 C81.2133344,24.4 81.3933326,24.3800002 81.54,24.34 C81.6866674,24.2999998 81.8166661,24.2533336 81.93,24.2 C82.0433339,24.1466664 82.1566661,24.1000002 82.27,24.06 C82.3833339,24.0199998 82.5133326,24 82.66,24 C82.9400014,24.0133334 83.1833323,24.0933326 83.39,24.24 C83.5966677,24.3866674 83.7499995,24.5699989 83.85,24.79 C83.9500005,25.0100011 83.9833335,25.2466654 83.95,25.5 C83.9166665,25.7533346 83.800001,25.9866656 83.6,26.2 C83.2399982,26.4933348 82.8400022,26.6966661 82.4,26.81 C81.9599978,26.9233339 81.4933358,26.9866666 81,27 C80.3599968,27.0266668 79.7466696,26.9100013 79.16,26.65 C78.5733304,26.3899987 78.0566689,26.0366689 77.61,25.59 C77.1633311,25.1433311 76.8100013,24.620003 76.55,24.02 C76.2899987,23.419997 76.16,22.8000032 76.16,22.16 C76.16,21.5333302 76.2899987,20.9266696 76.55,20.34 C76.8100013,19.7533304 77.1599978,19.2366689 77.6,18.79 C78.0400022,18.3433311 78.5533304,17.986668 79.14,17.72 C79.7266696,17.453332 80.3466634,17.32 81,17.32 Z M82.82,21.04 C82.5933322,20.6266646 82.3266682,20.3366675 82.02,20.17 C81.7133318,20.0033325 81.3733352,19.92 81,19.92 C80.6133314,19.92 80.2700015,20.0033325 79.97,20.17 C79.6699985,20.3366675 79.4066678,20.6266646 79.18,21.04 L82.82,21.04 Z M88.06,27.02 C87.6999982,27.02 87.4000012,26.9033345 87.16,26.67 C86.9199988,26.4366655 86.7866668,26.1266686 86.76,25.74 L86.76,22.04 C86.7733334,21.3999968 86.9099987,20.7966695 87.17,20.23 C87.4300013,19.6633305 87.7766645,19.1700021 88.21,18.75 C88.6433355,18.3299979 89.1499971,17.9966679 89.73,17.75 C90.3100029,17.5033321 90.9266634,17.3666668 91.58,17.34 C91.9533352,17.34 92.2633321,17.4666654 92.51,17.72 C92.7566679,17.9733346 92.8933332,18.2799982 92.92,18.64 C92.92,19.0000018 92.7933346,19.3033321 92.54,19.55 C92.2866654,19.7966679 91.9733352,19.9266666 91.6,19.94 C91.2933318,19.94 91.006668,19.9966661 90.74,20.11 C90.473332,20.2233339 90.240001,20.379999 90.04,20.58 C89.839999,20.780001 89.6800006,21.0166653 89.56,21.29 C89.4399994,21.5633347 89.38,21.8599984 89.38,22.18 L89.38,25.82 C89.3533332,26.1666684 89.2233345,26.4533322 88.99,26.68 C88.7566655,26.9066678 88.4466686,27.02 88.06,27.02 Z M106.1,22.64 C106.460002,22.64 106.773332,22.7699987 107.04,23.03 C107.306668,23.2900013 107.44,23.6133314 107.44,24 C107.44,24.133334 107.416667,24.2599994 107.37,24.38 C107.323333,24.5000006 107.266667,24.626666 107.2,24.76 C106.813331,25.4400034 106.26667,25.9833313 105.56,26.39 C104.85333,26.7966687 104.053338,27 103.16,27 L102.98,27 C102.31333,27 101.68667,26.8833345 101.1,26.65 C100.51333,26.4166655 100.000002,26.0900021 99.56,25.67 C99.1199978,25.2499979 98.766668,24.7533362 98.5,24.18 C98.233332,23.6066638 98.1,22.98667 98.1,22.32 L98.1,19.06 C98.1,18.39333 98.2233321,17.7666696 98.47,17.18 C98.7166679,16.5933304 99.0566645,16.0800022 99.49,15.64 C99.9233355,15.1999978 100.43333,14.8533346 101.02,14.6 C101.60667,14.3466654 102.259996,14.22 102.98,14.22 C103.366669,14.22 103.713332,14.253333 104.02,14.32 C104.566669,14.4133338 105.073331,14.593332 105.54,14.86 C106.24667,15.260002 106.806665,15.8199964 107.22,16.54 C107.273334,16.6333338 107.323333,16.746666 107.37,16.88 C107.416667,17.013334 107.44,17.1399994 107.44,17.26 C107.44,17.6333352 107.306668,17.953332 107.04,18.22 C106.773332,18.486668 106.453335,18.62 106.08,18.62 C105.786665,18.62 105.546668,18.5433341 105.36,18.39 C105.173332,18.2366659 105.006667,18.0466678 104.86,17.82 C104.699999,17.553332 104.480001,17.3400008 104.2,17.18 C103.973332,17.046666 103.680002,16.9333338 103.32,16.84 C103.213333,16.8266666 103.093334,16.82 102.96,16.82 C102.639998,16.82 102.346668,16.8766661 102.08,16.99 C101.813332,17.1033339 101.580001,17.2533324 101.38,17.44 C101.179999,17.6266676 101.020001,17.853332 100.9,18.12 C100.779999,18.386668 100.72,18.6666652 100.72,18.96 L100.72,22.16 C100.706667,22.4666682 100.756666,22.7566653 100.87,23.03 C100.983334,23.3033347 101.143332,23.539999 101.35,23.74 C101.556668,23.940001 101.796665,24.0999994 102.07,24.22 C102.343335,24.3400006 102.653332,24.4 103,24.4 L103.24,24.4 C103.640002,24.3199996 103.959999,24.2066674 104.2,24.06 C104.466668,23.8999992 104.686666,23.686668 104.86,23.42 C105.006667,23.1933322 105.159999,23.0066674 105.32,22.86 C105.480001,22.7133326 105.739998,22.64 106.1,22.64 Z M113.82,17.34 C114.420003,17.406667 114.983331,17.5799986 115.51,17.86 C116.036669,18.1400014 116.489998,18.4966645 116.87,18.93 C117.250002,19.3633355 117.549999,19.8566639 117.77,20.41 C117.990001,20.9633361 118.1,21.5466636 118.1,22.16 L118.1,25.7 C118.1,26.0600018 117.966668,26.3666654 117.7,26.62 C117.433332,26.8733346 117.133335,27 116.8,27 C116.333331,27 115.960001,26.7866688 115.68,26.36 C115.613333,26.3866668 115.553334,26.4166665 115.5,26.45 C115.446666,26.4833335 115.393334,26.5133332 115.34,26.54 C115.019998,26.6866674 114.693335,26.7999996 114.36,26.88 C114.013332,26.9600004 113.646669,27 113.26,27 C112.259995,27 111.366671,26.7300027 110.58,26.19 C109.793329,25.6499973 109.206669,24.9533376 108.82,24.1 C108.686666,23.7933318 108.583334,23.4800016 108.51,23.16 C108.436666,22.8399984 108.4,22.5066684 108.4,22.16 C108.4,21.8133316 108.436666,21.4800016 108.51,21.16 C108.583334,20.8399984 108.686666,20.5266682 108.82,20.22 C109.206669,19.353329 109.793329,18.653336 110.58,18.12 C111.366671,17.586664 112.259995,17.32 113.26,17.32 L113.55,17.32 C113.636667,17.32 113.726666,17.3266666 113.82,17.34 Z M113.24,24.4 C113.546668,24.4 113.836665,24.3433339 114.11,24.23 C114.383335,24.1166661 114.619999,23.960001 114.82,23.76 C115.020001,23.559999 115.179999,23.3233347 115.3,23.05 C115.420001,22.7766653 115.48,22.4800016 115.48,22.16 C115.48,21.8666652 115.420001,21.5833347 115.3,21.31 C115.179999,21.0366653 115.016668,20.7966677 114.81,20.59 C114.603332,20.3833323 114.363335,20.2200006 114.09,20.1 C113.816665,19.9799994 113.533335,19.92 113.24,19.92 C112.946665,19.92 112.666668,19.9799994 112.4,20.1 C112.133332,20.2200006 111.896668,20.3833323 111.69,20.59 C111.483332,20.7966677 111.320001,21.0366653 111.2,21.31 C111.079999,21.5833347 111.02,21.8666652 111.02,22.16 C111.02,22.4666682 111.083333,22.7566653 111.21,23.03 C111.336667,23.3033347 111.503332,23.539999 111.71,23.74 C111.916668,23.940001 112.153332,24.0999994 112.42,24.22 C112.686668,24.3400006 112.959999,24.4 113.24,24.4 Z M120.62,14.28 C120.980002,14.28 121.283332,14.4066654 121.53,14.66 C121.776668,14.9133346 121.913333,15.2266648 121.94,15.6 L121.94,23.5 C121.94,23.766668 122.026666,23.9933324 122.2,24.18 C122.373334,24.3666676 122.593332,24.46 122.86,24.46 C123.206668,24.46 123.509999,24.5799988 123.77,24.82 C124.030001,25.0600012 124.166667,25.3599982 124.18,25.72 C124.18,26.0400016 124.070001,26.3233321 123.85,26.57 C123.629999,26.8166679 123.346668,26.9666664 123,27.02 L122.72,27.02 C122.253331,27.02 121.813335,26.9233343 121.4,26.73 C120.986665,26.5366657 120.623335,26.2800016 120.31,25.96 C119.996665,25.6399984 119.750001,25.2666688 119.57,24.84 C119.389999,24.4133312 119.3,23.966669 119.3,23.5 L119.3,15.52 C119.34,15.186665 119.479999,14.9000012 119.72,14.66 C119.960001,14.4199988 120.259998,14.2933334 120.62,14.28 Z M126.32,14.28 C126.680002,14.28 126.983332,14.4066654 127.23,14.66 C127.476668,14.9133346 127.613333,15.2266648 127.64,15.6 L127.64,23.5 C127.64,23.766668 127.726666,23.9933324 127.9,24.18 C128.073334,24.3666676 128.293332,24.46 128.56,24.46 C128.906668,24.46 129.209999,24.5799988 129.47,24.82 C129.730001,25.0600012 129.866667,25.3599982 129.88,25.72 C129.88,26.0400016 129.770001,26.3233321 129.55,26.57 C129.329999,26.8166679 129.046668,26.9666664 128.7,27.02 L128.42,27.02 C127.953331,27.02 127.513335,26.9233343 127.1,26.73 C126.686665,26.5366657 126.323335,26.2800016 126.01,25.96 C125.696665,25.6399984 125.450001,25.2666688 125.27,24.84 C125.089999,24.4133312 125,23.966669 125,23.5 L125,15.52 C125.04,15.186665 125.179999,14.9000012 125.42,14.66 C125.660001,14.4199988 125.959998,14.2933334 126.32,14.28 Z"
          id="BetterCall"></path>
      </g>
    </g>
  </g>
</svg>
