<?xml version="1.0" encoding="UTF-8"?>
<svg width="46px" height="46px" viewBox="0 0 46 46" version="1.1" xmlns="http://www.w3.org/2000/svg">
  <!-- Generator: Sketch 53.2 (72643) - https://sketchapp.com -->
  <title>Group 8</title>
  <desc>Created with Sketch.</desc>
  <g id="Page-1" stroke="none" stroke-width="1" fill="none" fill-rule="evenodd">
    <g id="DASHBOARD" transform="translate(-757.000000, -111.000000)" fill="#0CC983">
      <g id="Group-8" transform="translate(757.000000, 111.000000)">
        <circle id="Oval-Copy" opacity="0.200000003" cx="23" cy="23" r="23"></circle>
        <g id="efficiency" transform="translate(10.000000, 14.000000)" fill-rule="nonzero">
          <path
            d="M3.91989021,17 L22.0707933,17 C23.1335527,17 24.1308545,16.5786035 24.8791736,15.8133927 C25.6101254,15.0659033 26.0081016,14.0804124 25.999875,13.0383575 C25.988703,11.6374973 25.7348961,10.2402948 25.2455128,8.88554104 C23.3012339,3.50418372 18.3777449,-0.0794382991 12.8066369,0.0013379549 C5.72995313,0.106635572 0,5.95080785 0,13.1363399 L5.07817001e-05,13.1705977 C0.00589067721,15.2821137 1.76430861,17 3.91989021,17 Z M12.2383897,14.6818039 C12.2383897,14.2557195 12.5800998,13.9090719 13.0001152,13.9090719 C13.4201307,13.9090719 13.7618407,14.2557195 13.7618407,14.6818039 C13.7618407,15.1078884 13.4201307,15.454536 13.0001152,15.454536 C12.5800998,15.454536 12.2383897,15.1078884 12.2383897,14.6818039 Z M12.8289809,1.54664745 C17.7338837,1.47365003 22.1098952,4.69784864 23.8150939,9.41738673 C24.24425,10.6052304 24.4667754,11.8276925 24.4764747,13.0507727 C24.4814006,13.6776129 24.2403398,14.2722044 23.7975742,14.7249739 C23.3375428,15.1954132 22.724303,15.454536 22.0707933,15.454536 L15.1542749,15.454536 C15.2388265,15.2126708 15.2852917,14.9526723 15.2852917,14.6818039 C15.2852917,14.3253684 15.2054121,13.98753 15.0631218,13.6855463 L20.1231119,8.59550895 C20.9501935,9.90997764 21.4298774,11.4676508 21.4298774,13.1363399 C21.4298774,13.563094 21.7709273,13.9090719 22.1916029,13.9090719 C22.6122785,13.9090719 22.9533284,13.563094 22.9533284,13.1363399 C22.9533284,7.59724221 18.4883475,3.09082361 13.0001152,3.09082361 C7.51188298,3.09082361 3.046902,7.59724221 3.046902,13.1363399 C3.046902,13.563094 3.3879519,13.9090719 3.80862751,13.9090719 C4.22930311,13.9090719 4.57035301,13.563094 4.57035301,13.1363399 C4.57035301,8.44941109 8.35191387,4.63628765 13.0001152,4.63628765 C15.4407345,4.63628765 17.6420196,5.68792442 19.1827872,7.36495897 L16.8087427,9.75311304 L16.8087427,8.49994776 C16.8087427,8.07319362 16.4676928,7.72721574 16.0470172,7.72721574 C15.6263416,7.72721574 15.2852917,8.07319362 15.2852917,8.49994776 L15.2852917,10.0454118 C15.2852917,10.3821684 15.4979655,10.6677702 15.7942259,10.7736345 L13.9872607,12.5913062 C13.6883088,12.4454144 13.3534543,12.3636079 13.0001152,12.3636079 C11.7400689,12.3636079 10.7149387,13.4035506 10.7149387,14.6818039 C10.7149387,14.9526723 10.761404,15.2126708 10.8459555,15.454536 L3.91989021,15.454536 C2.62434748,15.454536 1.52690416,14.4066083 1.52350178,13.1665795 L1.523451,13.1363399 C1.523451,6.83847088 6.59512095,1.63937529 12.8289809,1.54664745 Z"
            id="Shape"></path>
          <path
            d="M9.5,11 C9.77613333,11 10,10.6642 10,10.25 L10,8.75 C10,8.3358 9.77613333,8 9.5,8 C9.22386667,8 9,8.3358 9,8.75 L9,10.25 C9,10.6642 9.22386667,11 9.5,11 Z"
            id="Path"></path>
          <path
            d="M13.5,11 C13.7761333,11 14,10.6642 14,10.25 L14,8.75 C14,8.3358 13.7761333,8 13.5,8 C13.2238667,8 13,8.3358 13,8.75 L13,10.25 C13,10.6642 13.2238667,11 13.5,11 Z"
            id="Path"></path>
        </g>
      </g>
    </g>
  </g>
</svg>
